<svg xmlns="http://www.w3.org/2000/svg" viewBox="0 0 800 220" width="100%" height="220">
  <rect width="800" height="220" fill="#1e1f29" rx="12" />
  <rect x="1" y="1" width="798" height="218" fill="none" stroke="#383a4c" stroke-width="1.5" rx="11" />
  
  <!-- Subtle Grid Pattern Background -->
  <g opacity="0.15">
    <path d="M0 40 H800 M0 80 H800 M0 120 H800 M0 160 H800 M0 200 H800" stroke="#6272a4" stroke-width="1" stroke-dasharray="4 4" />
    <path d="M80 0 V220 M160 0 V220 M240 0 V220 M320 0 V220 M400 0 V220 M480 0 V220 M560 0 V220 M640 0 V220 M720 0 V220" stroke="#6272a4" stroke-width="1" stroke-dasharray="4 4" />
  </g>

  <!-- Logo Group -->
  <g transform="translate(180, 50)">
    <path d="M40 6 L64 20 L64 46 L40 76 L16 46 L16 20 Z" fill="none" stroke="#bd93f9" stroke-width="3.5"></path>
    <line x1="40" y1="34" x2="40" y2="6" stroke="#6272a4" stroke-width="2"></line>
    <line x1="40" y1="34" x2="64" y2="20" stroke="#6272a4" stroke-width="2"></line>
    <line x1="40" y1="34" x2="64" y2="46" stroke="#6272a4" stroke-width="2"></line>
    <line x1="40" y1="34" x2="16" y2="46" stroke="#6272a4" stroke-width="2"></line>
    <line x1="40" y1="34" x2="16" y2="20" stroke="#6272a4" stroke-width="2"></line>
    <circle cx="40" cy="6" r="5" fill="#8be9fd"></circle>
    <circle cx="64" cy="20" r="5" fill="#8be9fd"></circle>
    <circle cx="64" cy="46" r="5" fill="#8be9fd"></circle>
    <circle cx="16" cy="46" r="5" fill="#8be9fd"></circle>
    <circle cx="16" cy="20" r="5" fill="#8be9fd"></circle>
    <circle cx="40" cy="34" r="8" fill="#bd93f9"></circle>
  </g>

  <!-- Text Group -->
  <text x="290" y="105" font-family="'JetBrains Mono', monospace, sans-serif" font-size="52" font-weight="700" fill="#f8f8f2">
    Infra<tspan fill="#bd93f9">Map</tspan>
  </text>
  
  <text x="292" y="140" font-family="'JetBrains Mono', monospace, sans-serif" font-size="16" fill="#9aa0b8">
    &gt; know your infrastructure.
  </text>
  
  <!-- Status Badge Pill -->
  <g transform="translate(292, 155)">
    <rect width="180" height="24" rx="12" fill="#282a36" stroke="#44475a" stroke-width="1"/>
    <circle cx="14" cy="12" r="4" fill="#50fa7b"/>
    <text x="26" y="16" font-family="'JetBrains Mono', monospace, sans-serif" font-size="11" font-weight="600" fill="#50fa7b" letter-spacing="0.5">HOMELAB DISCOVERY</text>
  </g>
</svg>
